<svg width="166" height="51" viewBox="0 0 166 51" fill="none" xmlns="http://www.w3.org/2000/svg">
<path d="M0.389648 49.3453V1.45264C0.584539 1.46045 0.888571 1.49169 1.29394 1.53073C1.69932 1.56978 2.10468 1.60101 2.50226 1.62444C2.89983 1.64786 3.21946 1.65565 3.46113 1.65565C3.66381 1.65565 3.96784 1.64005 4.37321 1.61662C4.77858 1.58538 5.17617 1.55415 5.55815 1.52291C5.94793 1.49168 6.27534 1.46825 6.54819 1.45264V49.3453C6.13502 49.3219 5.60492 49.2829 4.94229 49.2282C4.27966 49.1735 3.78853 49.1423 3.45332 49.1423C3.11032 49.1423 2.58801 49.1735 1.88641 49.2282C1.1848 49.2829 0.685882 49.3219 0.389648 49.3453Z" fill="white"/>
<path fill-rule="evenodd" clip-rule="evenodd" d="M6.9381 1.03906V49.7583L6.52629 49.735C6.10823 49.7113 5.57431 49.6719 4.91043 49.6171C4.24713 49.5624 3.7707 49.5326 3.45346 49.5326C3.12747 49.5326 2.61914 49.5626 1.91676 49.6173C1.21516 49.6719 0.716442 49.711 0.420458 49.7344L0 49.7676V1.04608L0.40536 1.06232C0.585722 1.06955 0.848865 1.0951 1.17231 1.1265C1.22383 1.1315 1.27689 1.13665 1.33138 1.1419C1.73187 1.18047 2.13242 1.21134 2.52528 1.23448C2.9158 1.2575 3.22778 1.26503 3.46126 1.26503C3.64987 1.26503 3.9406 1.25034 4.34717 1.22686C4.75091 1.19574 5.14657 1.16466 5.52657 1.13358C5.9179 1.10222 6.24916 1.0785 6.52608 1.06265L6.9381 1.03906ZM0.779562 1.8734V48.9228C1.05963 48.9009 1.41856 48.8728 1.85631 48.8387C2.55715 48.7841 3.09342 48.7516 3.45346 48.7516C3.80663 48.7516 4.31245 48.7843 4.97441 48.8389C5.43186 48.8766 5.82469 48.9068 6.15854 48.9295V1.86882C5.98633 1.88094 5.79715 1.8953 5.58968 1.91192C5.20697 1.94322 4.80884 1.97449 4.40324 2.00574L4.3958 2.00632C3.99357 2.02956 3.67744 2.04593 3.46126 2.04593C3.21141 2.04593 2.88413 2.03788 2.4795 2.01404C2.0772 1.99033 1.66703 1.95873 1.25677 1.91921C1.20103 1.91385 1.14758 1.90867 1.09637 1.9037C0.979217 1.89235 0.873803 1.88213 0.779562 1.8734Z" fill="white"/>
<path d="M56.2611 41.7862L55.9182 46.1983C51.9502 48.8534 46.7895 50.1809 40.4516 50.1809C36.663 50.1809 33.2485 49.603 30.2004 48.4473C27.1523 47.2916 24.5564 45.6126 22.4048 43.4105C20.2532 41.2083 18.6239 38.5611 17.5169 35.4609C16.4099 32.3607 15.8564 28.9092 15.8564 25.114C15.8564 20.0303 17.0102 15.6104 19.3099 11.8621C21.6174 8.11374 24.7746 5.26347 28.7894 3.31121C32.8041 1.35896 37.2788 0.390625 42.2057 0.390625C47.2728 0.390625 52.2776 1.46828 57.2278 3.62357C56.6821 5.02138 56.191 6.81745 55.7622 9.01178L55.2867 9.08206C54.8423 8.5042 53.9926 7.73111 52.7297 6.7706C51.4668 5.81009 49.8843 4.9589 47.9822 4.20143C46.0801 3.44395 44.061 3.06132 41.925 3.06132C38.8146 3.06132 36.0549 3.64699 33.6305 4.81053C31.206 5.97407 29.187 7.59055 27.5733 9.65213C25.9596 11.7137 24.7435 14.0877 23.9249 16.7818C23.1142 19.4759 22.701 22.3496 22.701 25.3873C22.701 29.776 23.4884 33.6492 25.0631 36.9993C26.6378 40.3494 28.8517 42.9342 31.7049 44.7458C34.5581 46.5575 37.8011 47.4634 41.4417 47.4634C44.6613 47.4634 47.5768 46.823 50.1806 45.5502C52.7921 44.2695 54.819 43.02 56.2611 41.7862Z" fill="white"/>
<path fill-rule="evenodd" clip-rule="evenodd" d="M42.2053 0.780902C37.3307 0.780902 32.9152 1.73862 28.9592 3.66229C25.0103 5.58255 21.9096 8.38241 19.6415 12.0666C17.3851 15.7445 16.2459 20.0912 16.2459 25.1138C16.2459 28.8709 16.7938 32.2772 17.8836 35.3292C18.9729 38.3799 20.5733 40.9779 22.683 43.1372C24.7927 45.2965 27.3399 46.9452 30.338 48.082C33.3355 49.2185 36.7023 49.7903 40.4513 49.7903C46.6525 49.7903 51.6787 48.5087 55.544 45.9776L55.8021 42.6579C54.3995 43.731 52.5797 44.808 50.3516 45.9007C47.6892 47.2022 44.7138 47.8536 41.4413 47.8536C37.7328 47.8536 34.4163 46.9298 31.4959 45.0755C28.5742 43.2203 26.3131 40.5758 24.7101 37.1655C23.1068 33.7546 22.3109 29.8227 22.3109 25.3871C22.3109 22.3136 22.729 19.4018 23.5514 16.6689L23.5517 16.6679C24.3832 13.931 25.6207 11.5132 27.2662 9.41104C28.9177 7.30113 30.9845 5.64709 33.4617 4.45823C35.9459 3.26599 38.7645 2.67069 41.9247 2.67069C44.1083 2.67069 46.1764 3.06209 48.1259 3.83842C50.0507 4.60496 51.6666 5.47191 52.9651 6.45945C54.1033 7.32515 54.9331 8.05784 55.4365 8.64827C55.8192 6.74528 56.2516 5.13933 56.7307 3.8346C51.9378 1.79726 47.0993 0.780902 42.2053 0.780902ZM28.6188 2.95979C32.6923 0.978948 37.2262 0 42.2053 0C47.3294 0 52.3869 1.0901 57.3828 3.26531L57.7272 3.41526L57.5905 3.7656C57.0562 5.13427 56.5705 6.90587 56.1444 9.08661L56.0915 9.35758L55.1171 9.50158L54.9775 9.32015C54.5666 8.78575 53.7522 8.03856 52.4937 7.0814C51.2663 6.14793 49.7172 5.3125 47.8379 4.56409C45.9831 3.82547 44.013 3.4516 41.9247 3.4516C38.8639 3.4516 36.1632 4.02764 33.7985 5.16248C31.4268 6.30071 29.4555 7.87962 27.8796 9.89288C26.2978 11.9138 25.1031 14.2438 24.2976 16.8949C23.4986 19.55 23.0904 22.3854 23.0904 25.3871C23.0904 29.7289 23.8692 33.5435 25.4154 36.8328C26.9617 40.1225 29.1286 42.6477 31.9133 44.4159C34.6993 46.1849 37.8688 47.0727 41.4413 47.0727C44.6081 47.0727 47.4642 46.4433 50.0093 45.1991C52.6058 43.9257 54.6003 42.6931 56.0077 41.4891L56.7224 40.8777L56.2917 46.4175L56.1343 46.5228C52.0843 49.2328 46.8413 50.5712 40.4513 50.5712C36.6229 50.5712 33.1607 49.9872 30.062 48.8123C26.964 47.6376 24.3193 45.9284 22.1258 43.6834C19.9324 41.4384 18.2742 38.7419 17.1496 35.5922C16.0254 32.4439 15.4663 28.947 15.4663 25.1138C15.4663 19.9692 16.6346 15.4762 18.9775 11.6575C21.3244 7.84511 24.5383 4.944 28.6188 2.95979Z" fill="white"/>
<path d="M88.4883 50.1809C84.684 50.1809 81.1994 49.5952 78.0187 48.4239C74.8381 47.2525 72.1097 45.5736 69.8333 43.3793C67.557 41.1849 65.8108 38.5611 64.5947 35.5C63.3786 32.4388 62.7705 29.0653 62.7705 25.3873C62.7705 21.639 63.4253 18.2108 64.7428 15.1028C66.0603 11.9948 67.8922 9.34758 70.2543 7.16105C72.6164 4.97453 75.3682 3.29559 78.5099 2.13204C81.6515 0.968501 85.027 0.390625 88.652 0.390625C92.0509 0.390625 95.3328 0.866981 98.4823 1.81187C101.632 2.75676 104.462 4.20923 106.972 6.16929C109.482 8.12935 111.47 10.6361 112.935 13.6972C114.401 16.7583 115.134 20.3036 115.134 24.3487C115.134 28.1907 114.487 31.7048 113.193 34.8908C111.899 38.0769 110.051 40.8179 107.642 43.1138C105.233 45.4096 102.396 47.1666 99.1293 48.3692C95.8707 49.5796 92.3237 50.1809 88.4883 50.1809ZM108.289 24.9109C108.289 21.6624 107.977 18.8277 107.354 16.4069C106.73 13.9861 105.568 11.6825 103.869 9.51155C102.146 7.32502 100.002 5.63828 97.4299 4.46693C94.8573 3.29558 92.16 2.7099 89.338 2.7099C85.2999 2.7099 81.784 3.67822 78.8061 5.61486C75.8204 7.55149 73.5441 10.3003 71.9694 13.8534C70.3946 17.4065 69.6073 21.5452 69.6073 26.2541C69.6073 30.8145 70.457 34.7269 72.1486 37.9988C73.8403 41.2708 76.1478 43.7385 79.0634 45.394C81.9789 47.0495 85.1907 47.8851 88.7066 47.8851C92.0509 47.8851 94.9742 47.1588 97.4766 45.7063C99.979 44.2539 102.021 42.3641 103.612 40.0292C105.202 37.6943 106.371 35.1954 107.135 32.5247C107.907 29.8384 108.289 27.3083 108.289 24.9109Z" fill="white"/>
<path fill-rule="evenodd" clip-rule="evenodd" d="M88.6516 0.780902C85.0688 0.780902 81.7394 1.35191 78.6447 2.49809C75.5492 3.64455 72.8417 5.29709 70.5185 7.44764C68.1993 9.59448 66.3984 12.1952 65.1012 15.2552C63.8065 18.3096 63.1599 21.6851 63.1599 25.3871C63.1599 29.0215 63.7606 32.3453 64.9565 35.3554C66.1529 38.3669 67.8685 40.9435 70.1033 43.0978C72.3377 45.2518 75.0189 46.9031 78.1529 48.0572C81.2856 49.2109 84.7241 49.7903 88.4879 49.7903C92.2822 49.7903 95.7827 49.1956 98.9934 48.003L98.9945 48.0026C102.213 46.8177 105.004 45.0885 107.373 42.8307C109.74 40.5745 111.557 37.8803 112.831 34.7435C114.104 31.6093 114.744 28.146 114.744 24.3485C114.744 20.3509 114.02 16.8652 112.584 13.8659C111.142 10.8557 109.191 8.39777 106.732 6.47706C104.261 4.54776 101.475 3.11719 98.3701 2.18573C95.2579 1.25203 92.0137 0.780902 88.6516 0.780902ZM78.3743 1.76565C81.5629 0.584744 84.9845 0 88.6516 0C92.0873 0 95.407 0.481583 98.5937 1.43766C101.788 2.39598 104.661 3.87034 107.211 5.86117C109.772 7.86059 111.796 10.4161 113.286 13.5282C114.782 16.6511 115.523 20.2559 115.523 24.3485C115.523 28.2351 114.868 31.7998 113.553 35.0378C112.239 38.2732 110.361 41.061 107.91 43.3965C105.462 45.7304 102.578 47.5151 99.2637 48.7354C95.9574 49.9634 92.3642 50.5712 88.4879 50.5712C84.6433 50.5712 81.1124 49.9792 77.8839 48.7902C74.6566 47.6017 71.8809 45.8951 69.5627 43.6604C67.2448 41.4261 65.468 38.755 64.2322 35.6442C62.9958 32.532 62.3804 29.1088 62.3804 25.3871C62.3804 21.5924 63.0435 18.1116 64.3837 14.95C65.7214 11.7941 67.5845 9.10032 69.9894 6.87412C72.3904 4.65162 75.1866 2.94628 78.3743 1.76565ZM78.5939 5.28694C81.6434 3.30386 85.2352 2.31928 89.3376 2.31928C92.2154 2.31928 94.9677 2.91692 97.5908 4.1113C100.22 5.30833 102.413 7.03393 104.175 9.26947L104.175 9.27044C105.905 11.4796 107.092 13.8314 107.731 16.3092C108.365 18.7697 108.679 21.6385 108.679 24.9108C108.679 27.3499 108.29 29.9166 107.51 32.6325C106.734 35.3433 105.547 37.88 103.933 40.2491C102.309 42.6335 100.223 44.563 97.6717 46.044C95.1012 47.536 92.1083 48.2753 88.7062 48.2753C85.1257 48.2753 81.8473 47.4236 78.8708 45.7335C75.8832 44.0371 73.525 41.5106 71.8022 38.1782C70.0759 34.8394 69.2171 30.8626 69.2171 26.2539C69.2171 21.5019 70.0117 17.3072 71.6127 13.6948C73.2151 10.0794 75.5386 7.26874 78.5939 5.28694ZM89.3376 3.10018C85.364 3.10018 81.9242 4.05215 79.018 5.94217L79.0176 5.94243C76.1015 7.8339 73.8724 10.5208 72.3253 14.0116C70.7768 17.5054 69.9967 21.5883 69.9967 26.2539C69.9967 30.7661 70.8373 34.614 72.4944 37.8191C74.1548 41.0307 76.4117 43.4395 79.2552 45.0541C82.1098 46.675 85.255 47.4944 88.7062 47.4944C91.9928 47.4944 94.8466 46.7813 97.2809 45.3683C99.7341 43.9444 101.733 42.0944 103.289 39.809C104.856 37.5083 106.008 35.0474 106.76 32.417L106.76 32.4166C107.524 29.7599 107.899 27.2663 107.899 24.9108C107.899 21.6859 107.589 18.8854 106.976 16.5043C106.367 14.1407 105.232 11.8852 103.562 9.75273C101.878 7.61549 99.7842 5.96779 97.2682 4.82221C94.7462 3.67389 92.1039 3.10018 89.3376 3.10018Z" fill="white"/>
<path d="M165.61 1.45264V49.3453H163.513C162.477 48.0334 161.268 46.6122 159.881 45.0738L129.68 11.6121H128.979V49.3531C128.714 49.3297 128.379 49.2907 127.958 49.236C127.537 49.1813 127.225 49.1501 127.014 49.1501C126.773 49.1501 126.437 49.1813 125.993 49.236C125.549 49.2907 125.245 49.3297 125.073 49.3531V1.46043H127.786L161.003 37.5225H161.705V1.46043C162.024 1.49167 162.352 1.53852 162.695 1.58538C163.038 1.63223 163.358 1.66347 163.669 1.66347C163.802 1.66347 163.997 1.65566 164.238 1.63223C164.48 1.6088 164.73 1.57757 164.987 1.53852C165.244 1.48386 165.455 1.46045 165.61 1.45264Z" fill="white"/>
<path fill-rule="evenodd" clip-rule="evenodd" d="M161.315 1.02979L161.742 1.07158C162.029 1.0996 162.322 1.13984 162.617 1.18036C162.66 1.18633 162.704 1.19231 162.747 1.19826C163.082 1.24402 163.382 1.27277 163.669 1.27277C163.788 1.27277 163.97 1.26571 164.201 1.24335C164.431 1.22097 164.67 1.19119 164.917 1.1539C165.189 1.09671 165.416 1.07116 165.591 1.06243L166 1.04193V49.7355H163.325L163.208 49.5874C162.177 48.2835 160.974 46.8688 159.591 45.3354C159.591 45.3354 159.591 45.3354 159.591 45.3354L129.507 12.0024H129.368V49.7793L128.944 49.7418C128.671 49.7177 128.33 49.6779 127.907 49.623C127.485 49.5681 127.196 49.5403 127.014 49.5403C126.799 49.5403 126.484 49.5687 126.04 49.6233C125.596 49.6779 125.294 49.7167 125.126 49.7398L124.683 49.8002V1.06973H127.956L161.174 37.1318H161.315V1.02979ZM165.22 1.89051C165.172 1.89903 165.121 1.90888 165.067 1.92023L165.056 1.92261L165.045 1.92432C164.781 1.96434 164.525 1.99647 164.276 2.02062C164.023 2.04511 163.815 2.05368 163.669 2.05368C163.332 2.05368 162.993 2.01994 162.642 1.972C162.597 1.96592 162.553 1.95986 162.51 1.95387C162.367 1.93429 162.229 1.91534 162.094 1.89801V37.9127H160.832L127.615 1.85063H125.463V48.9084C125.6 48.891 125.761 48.8709 125.945 48.8482C126.39 48.7935 126.746 48.7594 127.014 48.7594C127.253 48.7594 127.588 48.7941 128.007 48.8485C128.224 48.8767 128.417 48.9006 128.589 48.9202V11.2215H129.853L160.169 44.8117C161.51 46.2974 162.685 47.6762 163.701 48.9546H165.22V1.89051Z" fill="white"/>
</svg>
