<svg width="166" height="51" viewBox="0 0 166 51" fill="none" xmlns="http://www.w3.org/2000/svg">
<path d="M0.389648 49.3453L0.389648 1.45264C0.584539 1.46045 0.888571 1.49169 1.29394 1.53073C1.69932 1.56978 2.10468 1.60101 2.50226 1.62444C2.89983 1.64786 3.21946 1.65565 3.46113 1.65565C3.66381 1.65565 3.96784 1.64005 4.37321 1.61662C4.77858 1.58538 5.17616 1.55415 5.55815 1.52291C5.94793 1.49168 6.27534 1.46825 6.54818 1.45264L6.54818 49.3453C6.13502 49.3219 5.60492 49.2828 4.94229 49.2282C4.27966 49.1735 3.78853 49.1423 3.45332 49.1423C3.11031 49.1423 2.58801 49.1735 1.88641 49.2282C1.1848 49.2828 0.685882 49.3219 0.389648 49.3453Z" fill="#EC008C"/>
<path fill-rule="evenodd" clip-rule="evenodd" d="M6.9381 1.03905L6.9381 49.7583L6.52629 49.7349C6.10823 49.7112 5.57431 49.6719 4.91043 49.6171C4.24713 49.5624 3.7707 49.5325 3.45345 49.5325C3.12747 49.5325 2.61914 49.5625 1.91676 49.6173C1.21516 49.6719 0.716442 49.7109 0.420458 49.7343L0 49.7676L0 1.04607L0.40536 1.06231C0.585722 1.06953 0.848865 1.09508 1.17231 1.12648C1.22383 1.13148 1.27689 1.13663 1.33138 1.14188C1.73187 1.18046 2.13242 1.21132 2.52528 1.23447C2.9158 1.25748 3.22778 1.26501 3.46126 1.26501C3.64987 1.26501 3.9406 1.25032 4.34717 1.22684C4.75091 1.19573 5.14657 1.16464 5.52657 1.13357C5.9179 1.10221 6.24916 1.07848 6.52608 1.06263L6.9381 1.03905ZM0.779562 1.87338L0.779562 48.9228C1.05963 48.9008 1.41856 48.8728 1.85631 48.8387C2.55715 48.7841 3.09342 48.7516 3.45345 48.7516C3.80663 48.7516 4.31245 48.7842 4.97441 48.8388C5.43186 48.8766 5.82469 48.9067 6.15854 48.9294L6.15854 1.86881C5.98633 1.88092 5.79715 1.89528 5.58968 1.91191C5.20697 1.9432 4.80884 1.97448 4.40324 2.00573L4.3958 2.0063C3.99357 2.02955 3.67744 2.04592 3.46126 2.04592C3.21141 2.04592 2.88413 2.03787 2.4795 2.01402C2.0772 1.99032 1.66703 1.95871 1.25677 1.9192C1.20103 1.91383 1.14758 1.90865 1.09637 1.90369C0.979217 1.89233 0.873802 1.88212 0.779562 1.87338Z" fill="#EC008C"/>
<path d="M56.2611 41.786L55.9181 46.1981C51.9502 48.8531 46.7895 50.1807 40.4516 50.1807C36.663 50.1807 33.2485 49.6028 30.2004 48.4471C27.1523 47.2913 24.5564 45.6124 22.4048 43.4103C20.2532 41.2081 18.6239 38.5609 17.5169 35.4607C16.4099 32.3605 15.8564 28.9089 15.8564 25.1137C15.8564 20.0301 17.0102 15.6102 19.3099 11.8619C21.6174 8.11353 24.7746 5.26325 28.7894 3.311C32.8041 1.35875 37.2788 0.390411 42.2056 0.390411C47.2728 0.390411 52.2776 1.46807 57.2278 3.62335C56.6821 5.02117 56.191 6.81724 55.7622 9.01157L55.2867 9.08185C54.8423 8.50398 53.9926 7.73089 52.7297 6.77039C51.4668 5.80988 49.8843 4.95869 47.9822 4.20121C46.0801 3.44374 44.061 3.0611 41.925 3.0611C38.8145 3.0611 36.0549 3.64677 33.6305 4.81032C31.206 5.97386 29.187 7.59033 27.5733 9.65191C25.9596 11.7135 24.7435 14.0874 23.9249 16.7815C23.1142 19.4757 22.701 22.3494 22.701 25.3871C22.701 29.7757 23.4884 33.649 25.0631 36.9991C26.6378 40.3491 28.8517 42.9339 31.7049 44.7456C34.5581 46.5573 37.8011 47.4631 41.4417 47.4631C44.6613 47.4631 47.5768 46.8228 50.1806 45.5499C52.7921 44.2693 54.8189 43.0198 56.2611 41.786Z" fill="#EC008C"/>
<path fill-rule="evenodd" clip-rule="evenodd" d="M42.2048 0.780901C37.3302 0.780901 32.9147 1.73862 28.9587 3.66229C25.0098 5.58255 21.9091 8.38241 19.641 12.0666C17.3846 15.7444 16.2454 20.0912 16.2454 25.1138C16.2454 28.8709 16.7933 32.2772 17.8831 35.3292C18.9724 38.3799 20.5728 40.9779 22.6825 43.1372C24.7922 45.2965 27.3394 46.9452 30.3375 48.082C33.335 49.2185 36.7018 49.7903 40.4508 49.7903C46.652 49.7903 51.6782 48.5087 55.5435 45.9776L55.8015 42.6579C54.399 43.731 52.5792 44.808 50.3511 45.9007C47.6887 47.2022 44.7133 47.8536 41.4408 47.8536C37.7323 47.8536 34.4158 46.9298 31.4954 45.0754C28.5737 43.2202 26.3126 40.5758 24.7096 37.1654C23.1063 33.7545 22.3104 29.8227 22.3104 25.3871C22.3104 22.3136 22.7285 19.4018 23.5509 16.6689L23.5512 16.6679C24.3827 13.931 25.6202 11.5132 27.2657 9.41103C28.9172 7.30113 30.984 5.64709 33.4612 4.45823C35.9454 3.26599 38.764 2.67069 41.9242 2.67069C44.1078 2.67069 46.1759 3.06209 48.1253 3.83842C50.0502 4.60495 51.6661 5.47191 52.9646 6.45945C54.1028 7.32515 54.9326 8.05784 55.436 8.64827C55.8187 6.74527 56.2511 5.13933 56.7302 3.8346C51.9373 1.79726 47.0988 0.780901 42.2048 0.780901ZM28.6183 2.95979C32.6918 0.978948 37.2257 0 42.2048 0C47.3289 0 52.3864 1.0901 57.3823 3.2653L57.7267 3.41526L57.59 3.7656C57.0557 5.13427 56.57 6.90586 56.1439 9.08661L56.091 9.35758L55.1166 9.50158L54.977 9.32015C54.5661 8.78574 53.7517 8.03855 52.4932 7.0814C51.2658 6.14793 49.7167 5.3125 47.8374 4.56408C45.9826 3.82547 44.0125 3.45159 41.9242 3.45159C38.8634 3.45159 36.1627 4.02764 33.798 5.16248C31.4263 6.3007 29.455 7.87961 27.8791 9.89287C26.2973 11.9138 25.1026 14.2438 24.2971 16.8949C23.4981 19.55 23.0899 22.3854 23.0899 25.3871C23.0899 29.7289 23.8687 33.5435 25.4149 36.8328C26.9612 40.1225 29.1281 42.6477 31.9128 44.4159C34.6988 46.1849 37.8683 47.0727 41.4408 47.0727C44.6076 47.0727 47.4637 46.4433 50.0088 45.1991C52.6053 43.9257 54.5998 42.6931 56.0071 41.4891L56.7219 40.8777L56.2912 46.4175L56.1338 46.5228C52.0837 49.2328 46.8408 50.5712 40.4508 50.5712C36.6224 50.5712 33.1602 49.9872 30.0616 48.8123C26.9635 47.6376 24.3188 45.9284 22.1254 43.6834C19.9319 41.4384 18.2737 38.7419 17.1491 35.5922C16.0249 32.4439 15.4658 28.947 15.4658 25.1138C15.4658 19.9692 16.6341 15.4762 18.977 11.6575C21.3239 7.8451 24.5379 4.94399 28.6183 2.95979Z" fill="#EC008C"/>
<path d="M88.4883 50.1807C84.684 50.1807 81.1994 49.595 78.0187 48.4237C74.8381 47.2523 72.1097 45.5734 69.8333 43.379C67.557 41.1847 65.8108 38.5609 64.5947 35.4997C63.3786 32.4386 62.7705 29.0651 62.7705 25.3871C62.7705 21.6387 63.4253 18.2106 64.7428 15.1026C66.0603 11.9946 67.8922 9.34736 70.2543 7.16084C72.6164 4.97431 75.3682 3.29537 78.5099 2.13183C81.6515 0.968287 85.027 0.390411 88.652 0.390411C92.0509 0.390411 95.3328 0.866767 98.4822 1.81166C101.632 2.75655 104.461 4.20901 106.972 6.16908C109.482 8.12914 111.47 10.6358 112.935 13.697C114.401 16.7581 115.134 20.3034 115.134 24.3485C115.134 28.1905 114.487 31.7045 113.193 34.8906C111.899 38.0767 110.051 40.8177 107.642 43.1135C105.233 45.4094 102.396 47.1664 99.1293 48.369C95.8707 49.5794 92.3237 50.1807 88.4883 50.1807ZM108.289 24.9107C108.289 21.6622 107.977 18.8275 107.354 16.4067C106.73 13.9859 105.568 11.6822 103.869 9.51133C102.146 7.32481 100.002 5.63807 97.4299 4.46672C94.8573 3.29537 92.16 2.70969 89.338 2.70969C85.2999 2.70969 81.784 3.67801 78.8061 5.61464C75.8204 7.55128 73.5441 10.3001 71.9694 13.8532C70.3946 17.4063 69.6073 21.545 69.6073 26.2539C69.6073 30.8143 70.457 34.7266 72.1486 37.9986C73.8403 41.2706 76.1478 43.7382 79.0633 45.3938C81.9789 47.0493 85.1907 47.8848 88.7066 47.8848C92.0509 47.8848 94.9742 47.1586 97.4766 45.7061C99.979 44.2536 102.021 42.3639 103.612 40.029C105.202 37.6941 106.371 35.1952 107.135 32.5245C107.907 29.8382 108.289 27.3081 108.289 24.9107Z" fill="#EC008C"/>
<path fill-rule="evenodd" clip-rule="evenodd" d="M88.6521 0.780901C85.0693 0.780901 81.7399 1.35191 78.6452 2.49809C75.5497 3.64454 72.8422 5.29709 70.519 7.44763C68.1998 9.59448 66.3989 12.1951 65.1017 15.2552C63.807 18.3096 63.1604 21.6851 63.1604 25.3871C63.1604 29.0215 63.7611 32.3453 64.957 35.3554C66.1533 38.3669 67.869 40.9435 70.1037 43.0977C72.3382 45.2517 75.0194 46.9031 78.1534 48.0572C81.286 49.2109 84.7246 49.7903 88.4884 49.7903C92.2827 49.7903 95.7832 49.1955 98.9939 48.0029L98.995 48.0025C102.213 46.8177 105.005 45.0884 107.374 42.8307C109.741 40.5745 111.558 37.8803 112.832 34.7435C114.105 31.6093 114.744 28.146 114.744 24.3485C114.744 20.3509 114.02 16.8652 112.584 13.8659C111.143 10.8557 109.192 8.39776 106.732 6.47706C104.261 4.54776 101.475 3.11719 98.3705 2.18573C95.2584 1.25203 92.0142 0.780901 88.6521 0.780901ZM78.3748 1.76565C81.5633 0.584744 84.985 0 88.6521 0C92.0878 0 95.4075 0.481582 98.5942 1.43766C101.788 2.39598 104.662 3.87034 107.211 5.86117C109.772 7.86059 111.797 10.4161 113.287 13.5282C114.782 16.6511 115.524 20.2559 115.524 24.3485C115.524 28.2351 114.869 31.7998 113.554 35.0378C112.24 38.2732 110.361 41.061 107.911 43.3964C105.462 45.7304 102.578 47.5151 99.2641 48.7354C95.9579 49.9634 92.3647 50.5712 88.4884 50.5712C84.6437 50.5712 81.1129 49.9792 77.8844 48.7902C74.6571 47.6016 71.8814 45.8951 69.5632 43.6604C67.2453 41.426 65.4685 38.755 64.2327 35.6442C62.9963 32.532 62.3809 29.1088 62.3809 25.3871C62.3809 21.5924 63.044 18.1116 64.3842 14.95C65.7219 11.7941 67.585 9.10032 69.9899 6.87412C72.3908 4.65162 75.1871 2.94628 78.3748 1.76565ZM78.5944 5.28694C81.6439 3.30386 85.2356 2.31928 89.3381 2.31928C92.2159 2.31928 94.9681 2.91692 97.5913 4.1113C100.22 5.30833 102.414 7.03392 104.175 9.26947L104.176 9.27043C105.905 11.4796 107.093 13.8314 107.731 16.3092C108.365 18.7697 108.679 21.6385 108.679 24.9107C108.679 27.3499 108.29 29.9166 107.51 32.6325C106.735 35.3433 105.547 37.88 103.934 40.2491C102.31 42.6334 100.224 44.563 97.6722 46.044C95.1017 47.536 92.1088 48.2753 88.7067 48.2753C85.1262 48.2753 81.8478 47.4236 78.8713 45.7335C75.8837 44.037 73.5255 41.5106 71.8027 38.1782C70.0764 34.8393 69.2176 30.8626 69.2176 26.2539C69.2176 21.5019 70.0122 17.3072 71.6132 13.6948C73.2156 10.0794 75.539 7.26873 78.5944 5.28694ZM89.3381 3.10018C85.3645 3.10018 81.9247 4.05215 79.0185 5.94217L79.0181 5.94242C76.102 7.8339 73.8728 10.5208 72.3257 14.0116C70.7773 17.5054 69.9972 21.5882 69.9972 26.2539C69.9972 30.7661 70.8378 34.614 72.4949 37.8191C74.1553 41.0307 76.4122 43.4395 79.2557 45.0541C82.1103 46.675 85.2555 47.4944 88.7067 47.4944C91.9932 47.4944 94.8471 46.7812 97.2813 45.3683C99.7346 43.9444 101.733 42.0944 103.29 39.809C104.857 37.5083 106.008 35.0474 106.761 32.417L106.761 32.4165C107.524 29.7599 107.899 27.2663 107.899 24.9107C107.899 21.6859 107.59 18.8854 106.976 16.5043C106.367 14.1407 105.232 11.8852 103.563 9.75273C101.879 7.61549 99.7846 5.96779 97.2687 4.82221C94.7467 3.67389 92.1044 3.10018 89.3381 3.10018Z" fill="#EC008C"/>
<path d="M165.61 1.45264V49.3453H163.513C162.477 48.0334 161.268 46.6121 159.881 45.0738L129.68 11.6121H128.979V49.3531C128.714 49.3297 128.379 49.2907 127.958 49.236C127.537 49.1813 127.225 49.1501 127.014 49.1501C126.773 49.1501 126.437 49.1813 125.993 49.236C125.549 49.2907 125.245 49.3297 125.073 49.3531V1.46043L127.786 1.46043L161.003 37.5225H161.705V1.46043C162.024 1.49167 162.352 1.53852 162.695 1.58538C163.038 1.63223 163.358 1.66347 163.669 1.66347C163.802 1.66347 163.997 1.65566 164.238 1.63223C164.48 1.6088 164.73 1.57757 164.987 1.53852C165.244 1.48386 165.455 1.46045 165.61 1.45264Z" fill="#EC008C"/>
<path fill-rule="evenodd" clip-rule="evenodd" d="M161.316 1.02992L161.744 1.07171C162.031 1.09974 162.323 1.13998 162.618 1.1805C162.662 1.18647 162.705 1.19245 162.749 1.1984C163.084 1.24416 163.384 1.27291 163.67 1.27291C163.789 1.27291 163.971 1.26584 164.202 1.24348C164.433 1.22111 164.672 1.19133 164.918 1.15404C165.191 1.09684 165.418 1.0713 165.592 1.06256L166.001 1.04207V49.7356H163.326L163.209 49.5875C162.178 48.2836 160.976 46.8689 159.593 45.3355C159.593 45.3355 159.593 45.3355 159.593 45.3355L129.508 12.0025H129.37V49.7794L128.946 49.742C128.673 49.7178 128.331 49.678 127.909 49.6231C127.486 49.5683 127.198 49.5404 127.015 49.5404C126.8 49.5404 126.486 49.5688 126.042 49.6234C125.598 49.678 125.296 49.7168 125.127 49.7399L124.685 49.8003V1.06987L127.958 1.06987L161.175 37.1319H161.316V1.02992ZM165.222 1.89065C165.173 1.89917 165.122 1.90901 165.069 1.92037L165.058 1.92274L165.046 1.92446C164.783 1.96448 164.526 1.99661 164.277 2.02075C164.024 2.04525 163.817 2.05381 163.67 2.05381C163.334 2.05381 162.994 2.02008 162.643 1.97214C162.599 1.96605 162.555 1.96 162.511 1.95401C162.369 1.93442 162.231 1.91548 162.096 1.89814V37.9128H160.834L127.617 1.85077L125.464 1.85077V48.9085C125.601 48.8911 125.762 48.871 125.947 48.8483C126.391 48.7936 126.748 48.7595 127.015 48.7595C127.254 48.7595 127.589 48.7942 128.009 48.8487C128.226 48.8769 128.419 48.9007 128.59 48.9203V11.2216H129.855L160.171 44.8118C161.511 46.2976 162.686 47.6763 163.703 48.9547H165.222V1.89065Z" fill="#EC008C"/>
</svg>
